<?xml version="1.0" encoding="UTF-8"?>
<!--Generator: Apple Native CoreSVG 232.5-->
<!DOCTYPE svg
PUBLIC "-//W3C//DTD SVG 1.1//EN"
       "http://www.w3.org/Graphics/SVG/1.1/DTD/svg11.dtd">
<svg version="1.1" xmlns="http://www.w3.org/2000/svg" xmlns:xlink="http://www.w3.org/1999/xlink" width="3300" height="2200">
 <!--glyph: "", point size: 100.0, font version: "19.0d7e1", template writer version: "128"-->
 <style>.monochrome-0 {-sfsymbols-motion-group:0}

.multicolor-0:systemBlueColor {-sfsymbols-motion-group:0}

.hierarchical-0:primary {-sfsymbols-motion-group:0}

.SFSymbolsPreviewWireframe {fill:none;opacity:1.0;stroke:black;stroke-width:0.5}
</style>
 <g id="Notes">
  <rect height="2200" id="artboard" style="fill:white;opacity:1" width="3300" x="0" y="0"/>
  <line style="fill:none;stroke:black;opacity:1;stroke-width:0.5;" x1="263" x2="3036" y1="292" y2="292"/>
  <text style="stroke:none;fill:black;font-family:sans-serif;font-size:13;font-weight:bold;" transform="matrix(1 0 0 1 263 322)">Weight/Scale Variations</text>
  <text style="stroke:none;fill:black;font-family:sans-serif;font-size:13;text-anchor:middle;" transform="matrix(1 0 0 1 559.711 322)">Ultralight</text>
  <text style="stroke:none;fill:black;font-family:sans-serif;font-size:13;text-anchor:middle;" transform="matrix(1 0 0 1 856.422 322)">Thin</text>
  <text style="stroke:none;fill:black;font-family:sans-serif;font-size:13;text-anchor:middle;" transform="matrix(1 0 0 1 1153.13 322)">Light</text>
  <text style="stroke:none;fill:black;font-family:sans-serif;font-size:13;text-anchor:middle;" transform="matrix(1 0 0 1 1449.84 322)">Regular</text>
  <text style="stroke:none;fill:black;font-family:sans-serif;font-size:13;text-anchor:middle;" transform="matrix(1 0 0 1 1746.56 322)">Medium</text>
  <text style="stroke:none;fill:black;font-family:sans-serif;font-size:13;text-anchor:middle;" transform="matrix(1 0 0 1 2043.27 322)">Semibold</text>
  <text style="stroke:none;fill:black;font-family:sans-serif;font-size:13;text-anchor:middle;" transform="matrix(1 0 0 1 2339.98 322)">Bold</text>
  <text style="stroke:none;fill:black;font-family:sans-serif;font-size:13;text-anchor:middle;" transform="matrix(1 0 0 1 2636.69 322)">Heavy</text>
  <text style="stroke:none;fill:black;font-family:sans-serif;font-size:13;text-anchor:middle;" transform="matrix(1 0 0 1 2933.4 322)">Black</text>
  <line style="fill:none;stroke:black;opacity:1;stroke-width:0.5;" x1="263" x2="3036" y1="1903" y2="1903"/>
  <g transform="matrix(0.2 0 0 0.2 263 1933)">
   <path d="m46.2402 4.15039c21.5332 0 39.4531-17.8711 39.4531-39.4043s-17.9688-39.4043-39.502-39.4043c-21.4844 0-39.3555 17.8711-39.3555 39.4043s17.9199 39.4043 39.4043 39.4043Zm0-7.42188c-17.7246 0-31.8848-14.209-31.8848-31.9824s14.1113-31.9824 31.8359-31.9824c17.7734 0 32.0312 14.209 32.0312 31.9824s-14.209 31.9824-31.9824 31.9824Zm-17.9688-31.9824c0 2.14844 1.51367 3.61328 3.75977 3.61328h10.498v10.5957c0 2.19727 1.46484 3.71094 3.61328 3.71094 2.24609 0 3.71094-1.51367 3.71094-3.71094v-10.5957h10.5957c2.19727 0 3.71094-1.46484 3.71094-3.61328 0-2.19727-1.51367-3.71094-3.71094-3.71094h-10.5957v-10.5469c0-2.24609-1.46484-3.75977-3.71094-3.75977-2.14844 0-3.61328 1.51367-3.61328 3.75977v10.5469h-10.498c-2.24609 0-3.75977 1.51367-3.75977 3.71094Z"/>
  </g>
  <g transform="matrix(0.2 0 0 0.2 281.506 1933)">
   <path d="m58.5449 14.5508c27.2461 0 49.8047-22.6074 49.8047-49.8047 0-27.2461-22.6074-49.8047-49.8535-49.8047-27.1973 0-49.7559 22.5586-49.7559 49.8047 0 27.1973 22.6074 49.8047 49.8047 49.8047Zm0-8.30078c-23.0469 0-41.4551-18.457-41.4551-41.5039s18.3594-41.5039 41.4062-41.5039 41.5527 18.457 41.5527 41.5039-18.457 41.5039-41.5039 41.5039Zm-22.6562-41.5039c0 2.39258 1.66016 4.00391 4.15039 4.00391h14.3555v14.4043c0 2.44141 1.66016 4.15039 4.05273 4.15039 2.44141 0 4.15039-1.66016 4.15039-4.15039v-14.4043h14.4043c2.44141 0 4.15039-1.61133 4.15039-4.00391 0-2.44141-1.70898-4.15039-4.15039-4.15039h-14.4043v-14.3555c0-2.49023-1.70898-4.19922-4.15039-4.19922-2.39258 0-4.05273 1.70898-4.05273 4.19922v14.3555h-14.3555c-2.49023 0-4.15039 1.70898-4.15039 4.15039Z"/>
  </g>
  <g transform="matrix(0.2 0 0 0.2 304.924 1933)">
   <path d="m74.8535 28.3203c34.8145 0 63.623-28.8086 63.623-63.5742 0-34.8145-28.8574-63.623-63.6719-63.623-34.7656 0-63.5254 28.8086-63.5254 63.623 0 34.7656 28.8086 63.5742 63.5742 63.5742Zm0-9.08203c-30.1758 0-54.4434-24.3164-54.4434-54.4922 0-30.2246 24.2188-54.4922 54.3945-54.4922 30.2246 0 54.541 24.2676 54.541 54.4922 0 30.1758-24.2676 54.4922-54.4922 54.4922Zm-28.8574-54.4922c0 2.58789 1.85547 4.39453 4.58984 4.39453h19.7266v19.7754c0 2.68555 1.85547 4.58984 4.44336 4.58984 2.68555 0 4.54102-1.85547 4.54102-4.58984v-19.7754h19.7754c2.68555 0 4.58984-1.80664 4.58984-4.39453 0-2.73438-1.85547-4.58984-4.58984-4.58984h-19.7754v-19.7266c0-2.73438-1.85547-4.63867-4.54102-4.63867-2.58789 0-4.44336 1.9043-4.44336 4.63867v19.7266h-19.7266c-2.73438 0-4.58984 1.85547-4.58984 4.58984Z"/>
  </g>
  <text style="stroke:none;fill:black;font-family:sans-serif;font-size:13;font-weight:bold;" transform="matrix(1 0 0 1 263 1953)">Design Variations</text>
  <text style="stroke:none;fill:black;font-family:sans-serif;font-size:13;" transform="matrix(1 0 0 1 263 1971)">Symbols are supported in up to nine weights and three scales.</text>
  <text style="stroke:none;fill:black;font-family:sans-serif;font-size:13;" transform="matrix(1 0 0 1 263 1989)">For optimal layout with text and other symbols, vertically align</text>
  <text style="stroke:none;fill:black;font-family:sans-serif;font-size:13;" transform="matrix(1 0 0 1 263 2007)">symbols with the adjacent text.</text>
  <line style="fill:none;stroke:#00AEEF;stroke-width:0.5;opacity:1.0;" x1="776" x2="776" y1="1919" y2="1933"/>
  <g transform="matrix(0.2 0 0 0.2 776 1933)">
   <path d="m16.5527 0.78125c2.58789 0 3.85742-0.976562 4.78516-3.71094l6.29883-17.2363h28.8086l6.29883 17.2363c0.927734 2.73438 2.19727 3.71094 4.73633 3.71094 2.58789 0 4.24805-1.5625 4.24805-4.00391 0-0.830078-0.146484-1.61133-0.537109-2.63672l-22.9004-60.9863c-1.12305-2.97852-3.125-4.49219-6.25-4.49219-3.02734 0-5.07812 1.46484-6.15234 4.44336l-22.9004 61.084c-0.390625 1.02539-0.537109 1.80664-0.537109 2.63672 0 2.44141 1.5625 3.95508 4.10156 3.95508Zm13.4766-28.3691 11.8652-32.8613h0.244141l11.8652 32.8613Z"/>
  </g>
  <line style="fill:none;stroke:#00AEEF;stroke-width:0.5;opacity:1.0;" x1="792.836" x2="792.836" y1="1919" y2="1933"/>
  <text style="stroke:none;fill:black;font-family:sans-serif;font-size:13;font-weight:bold;" transform="matrix(1 0 0 1 776 1953)">Margins</text>
  <text style="stroke:none;fill:black;font-family:sans-serif;font-size:13;" transform="matrix(1 0 0 1 776 1971)">Leading and trailing margins on the left and right side of each symbol</text>
  <text style="stroke:none;fill:black;font-family:sans-serif;font-size:13;" transform="matrix(1 0 0 1 776 1989)">can be adjusted by modifying the x-location of the margin guidelines.</text>
  <text style="stroke:none;fill:black;font-family:sans-serif;font-size:13;" transform="matrix(1 0 0 1 776 2007)">Modifications are automatically applied proportionally to all</text>
  <text style="stroke:none;fill:black;font-family:sans-serif;font-size:13;" transform="matrix(1 0 0 1 776 2025)">scales and weights.</text>
  <g transform="matrix(0.2 0 0 0.2 1289 1933)">
   <path d="m14.209 9.32617 8.49609 8.54492c4.29688 4.3457 9.22852 4.05273 13.8672-1.07422l53.4668-58.9355-4.83398-4.88281-53.0762 58.3984c-1.75781 2.00195-3.41797 2.49023-5.76172 0.146484l-5.85938-5.81055c-2.34375-2.29492-1.80664-4.00391 0.195312-5.81055l57.373-54.0039-4.88281-4.83398-57.959 54.4434c-4.93164 4.58984-5.32227 9.47266-1.02539 13.8184Zm32.0801-90.9668c-2.09961 2.05078-2.24609 4.93164-1.07422 6.88477 1.17188 1.80664 3.4668 2.97852 6.68945 2.14844 7.32422-1.70898 14.9414-2.00195 22.0703 2.68555l-2.92969 7.27539c-1.70898 4.15039-0.830078 7.08008 1.85547 9.81445l11.4746 11.5723c2.44141 2.44141 4.49219 2.53906 7.32422 2.05078l5.32227-0.976562 3.32031 3.36914-0.195312 2.7832c-0.195312 2.49023 0.439453 4.39453 2.88086 6.78711l3.80859 3.71094c2.39258 2.39258 5.46875 2.53906 7.8125 0.195312l14.5508-14.5996c2.34375-2.34375 2.24609-5.32227-0.146484-7.71484l-3.85742-3.80859c-2.39258-2.39258-4.24805-3.17383-6.64062-2.97852l-2.88086 0.244141-3.22266-3.17383 1.2207-5.61523c0.634766-2.83203-0.146484-5.0293-3.07617-7.95898l-10.9863-10.9375c-16.6992-16.6016-38.8672-16.2109-53.3203-1.75781Zm7.4707 1.85547c12.1582-8.88672 28.6133-7.37305 39.7461 3.75977l12.1582 12.0605c1.17188 1.17188 1.36719 2.09961 1.02539 3.80859l-1.61133 7.42188 7.51953 7.42188 4.93164-0.292969c1.26953-0.0488281 1.66016 0.0488281 2.63672 1.02539l2.88086 2.88086-12.207 12.207-2.88086-2.88086c-0.976562-0.976562-1.12305-1.36719-1.07422-2.68555l0.341797-4.88281-7.4707-7.42188-7.61719 1.26953c-1.61133 0.341797-2.34375 0.195312-3.56445-0.976562l-10.0098-10.0098c-1.26953-1.17188-1.41602-2.00195-0.634766-3.85742l4.39453-10.4492c-7.8125-7.27539-17.9688-10.4004-28.125-7.42188-0.78125 0.195312-1.07422-0.439453-0.439453-0.976562Z"/>
  </g>
  <text style="stroke:none;fill:black;font-family:sans-serif;font-size:13;font-weight:bold;" transform="matrix(1 0 0 1 1289 1953)">Exporting</text>
  <text style="stroke:none;fill:black;font-family:sans-serif;font-size:13;" transform="matrix(1 0 0 1 1289 1971)">Symbols should be outlined when exporting to ensure the</text>
  <text style="stroke:none;fill:black;font-family:sans-serif;font-size:13;" transform="matrix(1 0 0 1 1289 1989)">design is preserved when submitting to Xcode.</text>
  <text id="template-version" style="stroke:none;fill:black;font-family:sans-serif;font-size:13;text-anchor:end;" transform="matrix(1 0 0 1 3036 1933)">Template v.5.0</text>
  <text style="stroke:none;fill:black;font-family:sans-serif;font-size:13;text-anchor:end;" transform="matrix(1 0 0 1 3036 1951)">Requires Xcode 15 or greater</text>
  <text id="descriptive-name" style="stroke:none;fill:black;font-family:sans-serif;font-size:13;text-anchor:end;" transform="matrix(1 0 0 1 3036 1969)">Generated from logo.bluetooth</text>
  <text style="stroke:none;fill:black;font-family:sans-serif;font-size:13;text-anchor:end;" transform="matrix(1 0 0 1 3036 1987)">Typeset at 100.0 points</text>
  <text style="stroke:none;fill:black;font-family:sans-serif;font-size:13;" transform="matrix(1 0 0 1 263 726)">Small</text>
  <text style="stroke:none;fill:black;font-family:sans-serif;font-size:13;" transform="matrix(1 0 0 1 263 1156)">Medium</text>
  <text style="stroke:none;fill:black;font-family:sans-serif;font-size:13;" transform="matrix(1 0 0 1 263 1586)">Large</text>
 </g>
 <g id="Guides">
  <g id="H-reference" style="fill:#27AAE1;stroke:none;" transform="matrix(1 0 0 1 339 696)">
   <path d="M0.993654 0L3.63775 0L29.3281-67.1323L30.0303-67.1323L30.0303-70.459L28.1226-70.459ZM11.6885-24.4799L46.9815-24.4799L46.2315-26.7285L12.4385-26.7285ZM55.1196 0L57.7637 0L30.6382-70.459L29.4326-70.459L29.4326-67.1323Z"/>
  </g>
  <line id="Baseline-S" style="fill:none;stroke:#27AAE1;opacity:1;stroke-width:0.5;" x1="263" x2="3036" y1="696" y2="696"/>
  <line id="Capline-S" style="fill:none;stroke:#27AAE1;opacity:1;stroke-width:0.5;" x1="263" x2="3036" y1="625.541" y2="625.541"/>
  <g id="H-reference" style="fill:#27AAE1;stroke:none;" transform="matrix(1 0 0 1 339 1126)">
   <path d="M0.993654 0L3.63775 0L29.3281-67.1323L30.0303-67.1323L30.0303-70.459L28.1226-70.459ZM11.6885-24.4799L46.9815-24.4799L46.2315-26.7285L12.4385-26.7285ZM55.1196 0L57.7637 0L30.6382-70.459L29.4326-70.459L29.4326-67.1323Z"/>
  </g>
  <line id="Baseline-M" style="fill:none;stroke:#27AAE1;opacity:1;stroke-width:0.5;" x1="263" x2="3036" y1="1126" y2="1126"/>
  <line id="Capline-M" style="fill:none;stroke:#27AAE1;opacity:1;stroke-width:0.5;" x1="263" x2="3036" y1="1055.54" y2="1055.54"/>
  <g id="H-reference" style="fill:#27AAE1;stroke:none;" transform="matrix(1 0 0 1 339 1556)">
   <path d="M0.993654 0L3.63775 0L29.3281-67.1323L30.0303-67.1323L30.0303-70.459L28.1226-70.459ZM11.6885-24.4799L46.9815-24.4799L46.2315-26.7285L12.4385-26.7285ZM55.1196 0L57.7637 0L30.6382-70.459L29.4326-70.459L29.4326-67.1323Z"/>
  </g>
  <line id="Baseline-L" style="fill:none;stroke:#27AAE1;opacity:1;stroke-width:0.5;" x1="263" x2="3036" y1="1556" y2="1556"/>
  <line id="Capline-L" style="fill:none;stroke:#27AAE1;opacity:1;stroke-width:0.5;" x1="263" x2="3036" y1="1485.54" y2="1485.54"/>
  <line id="left-margin-Regular-M" style="fill:none;stroke:#00AEEF;stroke-width:0.5;opacity:1.0;" x1="1408.28" x2="1408.28" y1="1030.79" y2="1150.12"/>
  <line id="right-margin-Regular-M" style="fill:none;stroke:#00AEEF;stroke-width:0.5;opacity:1.0;" x1="1491.41" x2="1491.41" y1="1030.79" y2="1150.12"/>
 </g>
 <g id="Symbols">
  <g id="Black-L" transform="matrix(1 0 0 1 2884.03 1556)">
   <path class="monochrome-0 multicolor-0:systemBlueColor hierarchical-0:primary SFSymbolsPreviewWireframe" d="M43.9942 36.4538L43.9942-24.2309L23.3161-4.00179L16.5739-10.9086L42.3923-36.0709L16.5739-62.1736L23.4808-68.9184L44.0393-48.1978L44.0393-106.085L82.3564-61.8442L56.044-36.0682L82.1917-9.75575L43.9942 36.4538ZM53.6957-24.725L53.6957 9.6446L69.1538-9.10222L53.6957-24.725ZM53.6957-80.1472L53.6957-47.2573L68.9917-62.386L53.6957-80.1472Z"/>
  </g>
  <g id="Heavy-L" transform="matrix(1 0 0 1 2587.5 1556)">
   <path class="monochrome-0 multicolor-0:systemBlueColor hierarchical-0:primary SFSymbolsPreviewWireframe" d="M43.82 36.0648L43.82-24.2893L23.2771-4.16713L16.5739-11.0351L42.2464-36.0611L16.5739-61.9897L23.4418-68.7053L43.8934-48.1015L43.8934-105.668L81.9965-61.6603L55.8299-36.0488L81.8318-9.88219L43.82 36.0648ZM53.4632-24.7834L53.4632 9.39172L68.8337-9.24811L53.4632-24.7834ZM53.4632-79.9041L53.4632-47.1989L68.6814-62.2401L53.4632-79.9041Z"/>
  </g>
  <g id="Bold-L" transform="matrix(1 0 0 1 2291.1 1556)">
   <path class="monochrome-0 multicolor-0:systemBlueColor hierarchical-0:primary SFSymbolsPreviewWireframe" d="M43.5368 35.3938L43.5368-24.3899L23.21-4.4523L16.5739-11.2532L41.9947-36.0444L16.5739-61.6897L23.3747-68.355L43.6417-47.9525L43.6417-104.965L81.3759-61.3603L55.4609-36.0152L81.2112-10.1003L43.5368 35.3938ZM53.0793-24.884L53.0793 8.95559L68.2989-9.49973L53.0793-24.884ZM53.0793-79.4847L53.0793-47.0983L68.1633-61.9885L53.0793-79.4847Z"/>
  </g>
  <g id="Semibold-L" transform="matrix(1 0 0 1 1994.6 1556)">
   <path class="monochrome-0 multicolor-0:systemBlueColor hierarchical-0:primary SFSymbolsPreviewWireframe" d="M43.3416 34.9312L43.3416-24.4593L23.1638-4.64889L16.5739-11.4035L41.8213-36.0328L16.5739-61.483L23.3285-68.1136L43.4683-47.8497L43.4683-104.481L80.948-61.1536L55.2065-35.9921L80.7833-10.2506L43.3416 34.9312ZM52.8147-24.9534L52.8147 8.65492L67.9302-9.67319L52.8147-24.9534ZM52.8147-79.1956L52.8147-47.0289L67.8062-61.815L52.8147-79.1956Z"/>
  </g>
  <g id="Medium-L" transform="matrix(1 0 0 1 1698.06 1556)">
   <path class="monochrome-0 multicolor-0:systemBlueColor hierarchical-0:primary SFSymbolsPreviewWireframe" d="M43.1936 34.5805L43.1936-24.5119L23.1288-4.79795L16.5739-11.5175L41.6898-36.024L16.5739-61.3261L23.2935-67.9304L43.3368-47.7719L43.3368-104.114L80.6236-60.9967L55.0136-35.9746L80.4589-10.3646L43.1936 34.5805ZM52.6141-25.006L52.6141 8.42694L67.6507-9.80471L52.6141-25.006ZM52.6141-78.9764L52.6141-46.9763L67.5355-61.6835L52.6141-78.9764Z"/>
  </g>
  <g id="Regular-L" transform="matrix(1 0 0 1 1401.56 1556)">
   <path class="monochrome-0 multicolor-0:systemBlueColor hierarchical-0:primary SFSymbolsPreviewWireframe" d="M43.0006 34.123L43.0006-24.5805L23.083-4.99238L16.5739-11.6662L41.5183-36.0126L16.5739-61.1216L23.2477-67.6916L43.1653-47.6703L43.1653-103.635L80.2005-60.7922L54.762-35.9517L80.0358-10.5133L43.0006 34.123ZM52.3524-25.0746L52.3524 8.12958L67.2861-9.97627L52.3524-25.0746ZM52.3524-78.6905L52.3524-46.9077L67.1823-61.5119L52.3524-78.6905Z"/>
  </g>
  <g id="Light-L" transform="matrix(1 0 0 1 1105.62 1556)">
   <path class="monochrome-0 multicolor-0:systemBlueColor hierarchical-0:primary SFSymbolsPreviewWireframe" d="M42.3701 32.4419L42.3701-24.8327L22.9149-5.70687L16.5739-12.2125L40.8878-35.9706L16.5739-60.4492L23.0796-66.8931L42.5348-47.3761L42.5348-101.954L78.6453-60.1198L53.8374-35.8676L78.4806-11.0596L42.3701 32.4419ZM51.4698-25.3268L51.4698 7.03683L66.0252-10.6067L51.4698-25.3268ZM51.4698-77.6398L51.4698-46.6555L65.9634-60.8815L51.4698-77.6398Z"/>
  </g>
  <g id="Thin-L" transform="matrix(1 0 0 1 809.94 1556)">
   <path class="monochrome-0 multicolor-0:systemBlueColor hierarchical-0:primary SFSymbolsPreviewWireframe" d="M41.5363 30.2184L41.5363-25.1662L22.6925-6.65185L16.5739-12.9352L40.054-35.915L16.5739-59.5598L22.8572-65.8369L41.701-46.987L41.701-99.7302L76.5886-59.2304L52.6144-35.7565L76.4239-11.7823L41.5363 30.2184ZM50.3024-25.6603L50.3024 5.59157L64.3575-11.4405L50.3024-25.6603ZM50.3024-76.2501L50.3024-46.322L64.3514-60.0477L50.3024-76.2501Z"/>
  </g>
  <g id="Ultralight-L" transform="matrix(1 0 0 1 513.756 1556)">
   <path class="monochrome-0 multicolor-0:systemBlueColor hierarchical-0:primary SFSymbolsPreviewWireframe" d="M41.1092 29.0795L41.1092-25.337L22.5786-7.13586L16.5739-13.3053L39.6269-35.8865L16.5739-59.1042L22.7433-65.296L41.2739-46.7877L41.2739-98.5913L75.5352-58.7748L51.9881-35.6995L75.3705-12.1524L41.1092 29.0795ZM49.7046-25.8311L49.7046 4.85132L63.5035-11.8676L49.7046-25.8311ZM49.7046-75.5383L49.7046-46.1512L63.5257-59.6206L49.7046-75.5383Z"/>
  </g>
  <g id="Black-M" transform="matrix(1 0 0 1 2891.39 1126)">
   <path class="monochrome-0 multicolor-0:systemBlueColor hierarchical-0:primary SFSymbolsPreviewWireframe" d="M37.8817 20.4085L37.8817-26.6971L21.808-10.9954L16.5739-16.3571L36.6164-35.8886L16.5739-56.1757L21.9356-61.4092L37.8924-45.3241L37.8924-90.2599L67.6369-55.9205L47.2116-35.8892L67.5093-15.4639L37.8817 20.4085ZM45.4139-27.0799L45.4139-0.398993L57.4139-14.9522L45.4139-27.0799ZM45.4139-70.1004L45.4139-44.5685L57.2857-56.3134L45.4139-70.1004Z"/>
  </g>
  <g id="Heavy-M" transform="matrix(1 0 0 1 2594.79 1126)">
   <path class="monochrome-0 multicolor-0:systemBlueColor hierarchical-0:primary SFSymbolsPreviewWireframe" d="M37.7697 20.1833L37.7697-26.7308L21.7854-11.0911L16.5739-16.4303L36.5319-35.883L16.5739-56.058L21.913-61.2746L37.8079-45.2571L37.8079-90.007L67.4286-55.8028L47.0877-35.878L67.301-15.5371L37.7697 20.1833ZM45.268-27.1136L45.268-0.545389L57.2174-15.0367L45.268-27.1136ZM45.268-69.9596L45.268-44.5348L57.0948-56.2289L45.268-69.9596Z"/>
  </g>
  <g id="Bold-M" transform="matrix(1 0 0 1 2298.19 1126)">
   <path class="monochrome-0 multicolor-0:systemBlueColor hierarchical-0:primary SFSymbolsPreviewWireframe" d="M37.6444 19.9314L37.6444-26.7686L21.7603-11.1982L16.5739-16.5122L36.4375-35.8767L16.5739-55.9264L21.8879-61.1241L37.7135-45.1821L37.7135-89.7242L67.1956-55.6712L46.9492-35.8654L67.068-15.619L37.6444 19.9314ZM45.1049-27.1514L45.1049-0.709154L56.9976-15.1312L45.1049-27.1514ZM45.1049-69.8022L45.1049-44.497L56.8813-56.1344L45.1049-69.8022Z"/>
  </g>
  <g id="Semibold-M" transform="matrix(1 0 0 1 2001.56 1126)">
   <path class="monochrome-0 multicolor-0:systemBlueColor hierarchical-0:primary SFSymbolsPreviewWireframe" d="M37.5579 19.7577L37.5579-26.7947L21.7429-11.272L16.5739-16.5686L36.3724-35.8724L16.5739-55.8356L21.8705-61.0203L37.6484-45.1304L37.6484-89.5293L67.0349-55.5804L46.8536-35.8567L66.9073-15.6754L37.5579 19.7577ZM44.9925-27.1775L44.9925-0.822052L56.846-15.1963L44.9925-27.1775ZM44.9925-69.6936L44.9925-44.4709L56.7341-56.0693L44.9925-69.6936Z"/>
  </g>
  <g id="Medium-M" transform="matrix(1 0 0 1 1704.91 1126)">
   <path class="monochrome-0 multicolor-0:systemBlueColor hierarchical-0:primary SFSymbolsPreviewWireframe" d="M37.4924 19.626L37.4924-26.8144L21.7297-11.328L16.5739-16.6114L36.323-35.8691L16.5739-55.7668L21.8573-60.9416L37.599-45.0913L37.599-89.3814L66.9131-55.5116L46.7812-35.8501L66.7855-15.7182L37.4924 19.626ZM44.9072-27.1972L44.9072-0.907656L56.7311-15.2457L44.9072-27.1972ZM44.9072-69.6113L44.9072-44.4512L56.6225-56.0199L44.9072-69.6113Z"/>
  </g>
  <g id="Regular-M" transform="matrix(1 0 0 1 1408.28 1126)">
   <path class="monochrome-0 multicolor-0:systemBlueColor hierarchical-0:primary SFSymbolsPreviewWireframe" d="M37.407 19.4542L37.407-26.8402L21.7126-11.401L16.5739-16.6673L36.2586-35.8648L16.5739-55.677L21.8402-60.8389L37.5346-45.0402L37.5346-89.1886L66.7542-55.4218L46.6867-35.8415L66.6266-15.7741L37.407 19.4542ZM44.796-27.223L44.796-1.01931L56.5812-15.3101L44.796-27.223ZM44.796-69.5039L44.796-44.4254L56.4769-55.9555L44.796-69.5039Z"/>
  </g>
  <g id="Light-M" transform="matrix(1 0 0 1 1112.27 1126)">
   <path class="monochrome-0 multicolor-0:systemBlueColor hierarchical-0:primary SFSymbolsPreviewWireframe" d="M36.8418 17.9469L36.8418-27.0663L21.5618-12.0416L16.5739-17.1571L35.6934-35.8271L16.5739-55.0741L21.6894-60.123L36.9694-44.7764L36.9694-87.6813L65.36-54.8189L45.8577-35.7662L65.2324-16.2639L36.8418 17.9469ZM44.0047-27.4491L44.0047-1.99902L55.4508-15.8753L44.0047-27.4491ZM44.0047-68.5619L44.0047-44.1993L55.3841-55.3903L44.0047-68.5619Z"/>
  </g>
  <g id="Thin-M" transform="matrix(1 0 0 1 816.476 1126)">
   <path class="monochrome-0 multicolor-0:systemBlueColor hierarchical-0:primary SFSymbolsPreviewWireframe" d="M36.0942 15.9535L36.0942-27.3653L21.3625-12.8888L16.5739-17.805L34.9458-35.7772L16.5739-54.2768L21.4901-59.1761L36.2218-44.4275L36.2218-85.6879L63.5161-54.0216L44.7614-35.6665L63.3885-16.9118L36.0942 15.9535ZM42.9581-27.7481L42.9581-3.29477L53.9557-16.6229L42.9581-27.7481ZM42.9581-67.316L42.9581-43.9003L53.9389-54.6427L42.9581-67.316Z"/>
  </g>
  <g id="Ultralight-M" transform="matrix(1 0 0 1 520.237 1126)">
   <path class="monochrome-0 multicolor-0:systemBlueColor hierarchical-0:primary SFSymbolsPreviewWireframe" d="M35.7113 14.9325L35.7113-27.5185L21.2604-13.3227L16.5739-18.1368L34.5629-35.7517L16.5739-53.8683L21.388-58.6911L35.8389-44.2488L35.8389-84.6669L62.5716-53.6131L44.1998-35.6154L62.444-17.2436L35.7113 14.9325ZM42.422-27.9013L42.422-3.95844L53.1899-17.0058L42.422-27.9013ZM42.422-66.6778L42.422-43.7471L53.1986-54.2598L42.422-66.6778Z"/>
  </g>
  <g id="Black-S" transform="matrix(1 0 0 1 2896.93 696)">
   <path class="monochrome-0 multicolor-0:systemBlueColor hierarchical-0:primary SFSymbolsPreviewWireframe" d="M33.2739 8.35L33.2739-28.55L20.6739-16.25L16.5739-20.45L32.2739-35.75L16.5739-51.65L20.7739-55.75L33.2739-43.15L33.2739-78.35L56.5739-51.45L40.5739-35.75L56.4739-19.75L33.2739 8.35ZM39.1739-28.85L39.1739-7.95L48.5739-19.35L39.1739-28.85ZM39.1739-62.55L39.1739-42.55L48.4739-51.75L39.1739-62.55Z"/>
  </g>
  <g id="Heavy-S" transform="matrix(1 0 0 1 2600.21 696)">
   <path class="monochrome-0 multicolor-0:systemBlueColor hierarchical-0:primary SFSymbolsPreviewWireframe" d="M33.2503 8.35L33.2503-28.55L20.6739-16.25L16.5739-20.45L32.2739-35.75L16.5739-51.6264L20.7739-55.7264L33.2739-43.1264L33.2739-78.3264L56.5739-51.4264L40.5739-35.75L56.4739-19.75L33.2503 8.35ZM39.1503-28.85L39.1503-7.95L48.5503-19.35L39.1503-28.85ZM39.1503-62.55L39.1503-42.55L48.4503-51.75L39.1503-62.55Z"/>
  </g>
  <g id="Bold-S" transform="matrix(1 0 0 1 2303.5 696)">
   <path class="monochrome-0 multicolor-0:systemBlueColor hierarchical-0:primary SFSymbolsPreviewWireframe" d="M33.2239 8.35L33.2239-28.55L20.6739-16.25L16.5739-20.45L32.2739-35.75L16.5739-51.6L20.7739-55.7L33.2739-43.1L33.2739-78.3L56.5739-51.4L40.5739-35.75L56.4739-19.75L33.2239 8.35ZM39.1239-28.85L39.1239-7.95L48.5239-19.35L39.1239-28.85ZM39.1239-62.55L39.1239-42.55L48.4239-51.75L39.1239-62.55Z"/>
  </g>
  <g id="Semibold-S" transform="matrix(1 0 0 1 2006.79 696)">
   <path class="monochrome-0 multicolor-0:systemBlueColor hierarchical-0:primary SFSymbolsPreviewWireframe" d="M33.2057 8.35L33.2057-28.55L20.6739-16.25L16.5739-20.45L32.2739-35.75L16.5739-51.5818L20.7739-55.6818L33.2739-43.0818L33.2739-78.2818L56.5739-51.3818L40.5739-35.75L56.4739-19.75L33.2057 8.35ZM39.1057-28.85L39.1057-7.95L48.5057-19.35L39.1057-28.85ZM39.1057-62.55L39.1057-42.55L48.4057-51.75L39.1057-62.55Z"/>
  </g>
  <g id="Medium-S" transform="matrix(1 0 0 1 1710.08 696)">
   <path class="monochrome-0 multicolor-0:systemBlueColor hierarchical-0:primary SFSymbolsPreviewWireframe" d="M33.1919 8.35L33.1919-28.55L20.6739-16.25L16.5739-20.45L32.2739-35.75L16.5739-51.568L20.7739-55.668L33.2739-43.068L33.2739-78.268L56.5739-51.368L40.5739-35.75L56.4739-19.75L33.1919 8.35ZM39.0919-28.85L39.0919-7.95L48.4919-19.35L39.0919-28.85ZM39.0919-62.55L39.0919-42.55L48.3919-51.75L39.0919-62.55Z"/>
  </g>
  <g id="Regular-S" transform="matrix(1 0 0 1 1413.37 696)">
   <path class="monochrome-0 multicolor-0:systemBlueColor hierarchical-0:primary SFSymbolsPreviewWireframe" d="M33.1739 8.35L33.1739-28.55L20.6739-16.25L16.5739-20.45L32.2739-35.75L16.5739-51.55L20.7739-55.65L33.2739-43.05L33.2739-78.25L56.5739-51.35L40.5739-35.75L56.4739-19.75L33.1739 8.35ZM39.0739-28.85L39.0739-7.95L48.4739-19.35L39.0739-28.85ZM39.0739-62.55L39.0739-42.55L48.3739-51.75L39.0739-62.55Z"/>
  </g>
  <g id="Light-S" transform="matrix(1 0 0 1 1117.28 696)">
   <path class="monochrome-0 multicolor-0:systemBlueColor hierarchical-0:primary SFSymbolsPreviewWireframe" d="M32.6739 7.01667L32.6739-28.75L20.5406-16.8167L16.5739-20.8833L31.7739-35.7167L16.5739-51.0167L20.6406-55.0167L32.7739-42.8167L32.7739-76.9167L55.3406-50.8167L39.8406-35.6833L55.2406-20.1833L32.6739 7.01667ZM38.3739-29.05L38.3739-8.81667L47.4739-19.85L38.3739-29.05ZM38.3739-61.7167L38.3739-42.35L47.4073-51.25L38.3739-61.7167Z"/>
  </g>
  <g id="Thin-S" transform="matrix(1 0 0 1 821.38 696)">
   <path class="monochrome-0 multicolor-0:systemBlueColor hierarchical-0:primary SFSymbolsPreviewWireframe" d="M32.0126 5.25323L32.0126-29.0145L20.3642-17.5661L16.5739-21.4565L31.1126-35.6726L16.5739-50.3113L20.4642-54.179L32.1126-42.5081L32.1126-75.1532L53.7094-50.1113L38.8707-35.5952L53.6094-20.7565L32.0126 5.25323ZM37.4481-29.3145L37.4481-9.9629L46.1513-20.5113L37.4481-29.3145ZM37.4481-60.6145L37.4481-42.0855L46.1287-50.5887L37.4481-60.6145Z"/>
  </g>
  <g id="Ultralight-S" transform="matrix(1 0 0 1 525.086 696)">
   <path class="monochrome-0 multicolor-0:systemBlueColor hierarchical-0:primary SFSymbolsPreviewWireframe" d="M31.6739 4.35L31.6739-29.15L20.2739-17.95L16.5739-21.75L30.7739-35.65L16.5739-49.95L20.3739-53.75L31.7739-42.35L31.7739-74.25L52.8739-49.75L38.3739-35.55L52.7739-21.05L31.6739 4.35ZM36.9739-29.45L36.9739-10.55L45.4739-20.85L36.9739-29.45ZM36.9739-60.05L36.9739-41.95L45.4739-50.25L36.9739-60.05Z"/>
  </g>
 </g>
</svg>
