<?xml version="1.0" encoding="UTF-8" standalone="no"?>
<svg
   width="512"
   height="512"
   viewBox="0 0 512 512"
   version="1.1"
   id="svg11"
   sodipodi:docname="full-with-template.svg"
   xml:space="preserve"
   inkscape:export-filename="foreground.png"
   inkscape:export-xdpi="81"
   inkscape:export-ydpi="81"
   inkscape:version="1.3 (0e150ed, 2023-07-21)"
   xmlns:inkscape="http://www.inkscape.org/namespaces/inkscape"
   xmlns:sodipodi="http://sodipodi.sourceforge.net/DTD/sodipodi-0.dtd"
   xmlns:xlink="http://www.w3.org/1999/xlink"
   xmlns="http://www.w3.org/2000/svg"
   xmlns:svg="http://www.w3.org/2000/svg"><style
     id="style1"><![CDATA[
#keylines circle, #keylines rect { 
   vector-effect: non-scaling-stroke;
   fill: none;
   stroke: #0000FF;
}
#mask path, #mask rect, #mask circle, #hatching path { 
   vector-effect: non-scaling-stroke;
   fill: none;
   stroke: #FF0000;
}
#keylines, #mask {
   opacity: 0.5;
}
]]></style><inkscape:_templateinfo><inkscape:_name>Android O icon template</inkscape:_name><inkscape:author>Venceslas DUET</inkscape:author><inkscape:_shortdesc>A collection of keylines and guides used to make adaptive icons for android O</inkscape:_shortdesc><inkscape:date>2021-02-14</inkscape:date><inkscape:_keywords>Android Icon Adaptive Keylines</inkscape:_keywords></inkscape:_templateinfo><defs
     id="defs1"><linearGradient
       id="linearGradient12"
       inkscape:collect="always"><stop
         style="stop-color:#ffffff;stop-opacity:1;"
         offset="0.55300564"
         id="stop12" /><stop
         style="stop-color:#bfbfbf;stop-opacity:1;"
         offset="1"
         id="stop13" /></linearGradient><clipPath
       clipPathUnits="userSpaceOnUse"
       id="clipHatching"><rect
         width="8"
         height="8"
         x="0"
         y="0"
         id="rect1" /></clipPath><pattern
       patternUnits="userSpaceOnUse"
       width="8"
       height="8"
       id="hatching"><path
         d="M 1,-1 -1,1 M 9,7 7,9 M 9,-1 -1,9"
         clip-path="url(#clipHatching)"
         id="path1" /></pattern><style
       id="style1-3">.a{fill:none;stroke:#000000;stroke-linecap:round;stroke-linejoin:round;}.b{fill:#000000;}</style><radialGradient
       inkscape:collect="always"
       xlink:href="#linearGradient12"
       id="radialGradient13"
       cx="256"
       cy="256"
       fx="256"
       fy="256"
       r="256"
       gradientUnits="userSpaceOnUse" /></defs><sodipodi:namedview
     id="base"
     inkscape:current-layer="layer1"
     showgrid="false"
     units="px"
     showguides="false"
     inkscape:guide-bbox="true"
     inkscape:document-units="px"
     inkscape:cx="267.09198"
     inkscape:cy="262.08684"
     pagecolor="#505050"
     bordercolor="#eeeeee"
     borderopacity="1"
     inkscape:showpageshadow="0"
     inkscape:pageopacity="0"
     inkscape:pagecheckerboard="0"
     inkscape:deskcolor="#505050"
     inkscape:lockguides="false"
     inkscape:export-bgcolor="#ffffff00"
     inkscape:zoom="1.0988724"
     inkscape:window-width="1512"
     inkscape:window-height="837"
     inkscape:window-x="0"
     inkscape:window-y="38"
     inkscape:window-maximized="0"><inkscape:grid
       type="xygrid"
       empspacing="8"
       id="grid1"
       visible="false"
       originx="0"
       originy="0"
       spacingy="1"
       spacingx="1"
       units="px" /><sodipodi:guide
       position="256,256"
       orientation="0,1"
       inkscape:locked="false"
       id="guide1" /><sodipodi:guide
       position="256,200"
       orientation="0,1"
       inkscape:locked="false"
       id="guide2" /><sodipodi:guide
       position="156.17121,312.28508"
       orientation="0,1"
       inkscape:locked="false"
       id="guide3" /><sodipodi:guide
       position="256,256"
       orientation="1,0"
       inkscape:locked="false"
       id="guide4" /><sodipodi:guide
       position="200,256"
       orientation="1,0"
       inkscape:locked="false"
       id="guide5" /><sodipodi:guide
       position="312,256"
       orientation="1,0"
       inkscape:locked="false"
       id="guide6" /><sodipodi:guide
       position="256,256"
       orientation="1,1"
       inkscape:locked="false"
       id="guide7" /><sodipodi:guide
       position="256,256"
       orientation="1,-1"
       inkscape:locked="false"
       id="guide8" /></sodipodi:namedview><g
     inkscape:groupmode="layer"
     id="layer2"
     inkscape:label="Background"
     style="stroke:none;stroke-width:0;stroke-dasharray:none"><rect
       style="fill:url(#radialGradient13);fill-opacity:1;stroke:none;stroke-width:0;stroke-dasharray:none"
       id="rect12"
       width="512"
       height="512"
       x="0"
       y="0" /></g><g
     inkscape:label="Calque 1"
     inkscape:groupmode="layer"
     id="layer1"
     transform="matrix(0.60478463,0,0,0.72933506,51.975695,88.982587)"
     style="stroke-width:5.47784;stroke-dasharray:none"><path
       class="a"
       d="M 349.90339,87.761442 C 463.76833,98.374503 504.73771,175.12969 499.51889,404.25814 H 272.94968 c 0,-98.07608 135.62591,-69.08876 113.13758,-226.86331"
       id="path1-0"
       style="fill:none;stroke:#000000;stroke-width:5.47784;stroke-linecap:round;stroke-linejoin:round;stroke-dasharray:none"
       sodipodi:nodetypes="cccc" /><ellipse
       style="fill:none;stroke:#000000;stroke-width:4.38227;stroke-dasharray:none"
       id="path5"
       cy="163.27005"
       cx="274.00089"
       rx="11.874304"
       ry="9.8464985" /><ellipse
       style="fill:none;stroke:#000000;stroke-width:3.28671;stroke-dasharray:none"
       id="path5-6"
       cy="257.97232"
       cx="204.83786"
       rx="7.5345016"
       ry="5.9345264" /><path
       class="a"
       d="m 386.08726,177.01731 c 4.26994,31.93395 -67.13062,81.37471 -93.79399,99.47377 -33.02084,21.32089 -39.64951,43.62063 -63.08672,40.39881 -11.76604,-10.70783 20.444,-33.07106 5.54667,-33.07106 -6.54723,0 -10.70387,6.43114 -10.79875,12.11671 -0.09,4.26437 -1.69463,6.83101 -5.47019,8.82513 -10.91206,0 -43.74313,11.08686 -43.74313,-43.30509 0,-21.32088 42.60447,-102.15072 65.0928,-131.05237 6.73701,-8.71787 20.30592,-20.27853 21.34968,-37.903792 -7.49611,-10.707823 -14.42289,-25.585065 -5.3137,-33.071065 13.94846,-11.844936 33.02084,27.385491 33.02084,27.385491 h 21.34967 c 0,0 10.05807,-33.355339 27.80202,-33.07106 11.86093,0.09476 10.62739,33.07106 10.62739,33.07106"
       id="path2-2"
       style="fill:none;stroke:#000000;stroke-width:5.47784;stroke-linecap:round;stroke-linejoin:round;stroke-dasharray:none"
       sodipodi:nodetypes="cccsccsccccccc" /></g><g
     inkscape:label="Keylines"
     inkscape:groupmode="layer"
     id="keylines"
     sodipodi:insensitive="true"
     style="display:none"><circle
       cx="256"
       cy="256"
       r="80"
       id="circle8" /><circle
       cx="256"
       cy="256"
       r="176"
       id="circle9" /><rect
       width="256"
       height="352"
       x="128"
       y="80"
       ry="24"
       id="rect9" /><rect
       width="352"
       height="256"
       x="80"
       y="128"
       ry="24"
       id="rect10" /><rectn
       width="304"
       height="304"
       x="104"
       y="104"
       ry="24" /></g><g
     inkscape:label="Mask"
     inkscape:groupmode="layer"
     id="mask"
     sodipodi:insensitive="true"
     style="display:none"><path
       d="M 0,0 V 512 H 512 V 0 Z M 64,64 H 448 V 448 H 64 Z"
       style="fill:url(#hatching)"
       id="path10" /><path
       d="m 256,512 c 112.1778,0 174.5778,0 215.2889,-40.7111 C 512,430.5778 512,368.1778 512,256 512,143.8222 512,81.4222 471.2889,40.7111 430.5778,0 368.1778,0 256,0 143.8222,0 81.4222,0 40.7111,40.7111 0,81.4222 0,143.8222 0,256 0,368.1778 0,430.5778 40.7111,471.2889 81.4222,512 143.8222,512 256,512 Z"
       id="path11" /><circle
       cx="256"
       cy="256"
       r="256"
       id="circle11" /><rect
       width="512"
       height="512"
       x="0"
       y="0"
       ry="128"
       id="rect11" /></g></svg>
